<svg width="300" height="300" viewBox="0 0 300 300" fill="none" xmlns="http://www.w3.org/2000/svg">
<path d="M139.699 190.044L131.736 146.222C146.846 140.984 158.586 134.839 166.958 127.787C175.534 120.533 179.822 111.97 179.822 102.098C179.822 87.7926 176.351 77.517 169.408 71.2711C162.67 64.8237 154.401 61.6 144.599 61.6C136.024 61.6 129.387 64.32 124.691 69.76C119.995 75.2 117.647 83.2593 117.647 93.9378V106.027L115.196 109.049H102.639C98.7592 109.049 95.7984 108.344 93.7565 106.933C91.9188 105.523 91 102.199 91 96.96C91 91.52 92.4293 86.08 95.288 80.64C98.3508 74.9985 103.047 70.0622 109.377 65.8311C116.524 60.7941 123.16 56.563 129.285 53.1378C135.411 49.7126 143.579 48 153.788 48C164.202 48 173.492 50.4178 181.66 55.2533C189.827 60.0889 196.259 66.5363 200.955 74.5956C205.652 82.6548 208 91.6207 208 101.493C208 114.388 203.406 126.175 194.217 136.853C185.233 147.33 169.919 157.304 148.275 166.773L145.825 190.044H139.699ZM142.762 252C137.657 252 133.267 250.187 129.592 246.56C125.916 242.732 124.079 238.4 124.079 233.564C124.079 228.527 125.916 224.196 129.592 220.569C133.267 216.942 137.657 215.129 142.762 215.129C147.662 215.129 151.95 216.942 155.626 220.569C159.505 224.196 161.445 228.527 161.445 233.564C161.445 238.4 159.505 242.732 155.626 246.56C151.95 250.187 147.662 252 142.762 252Z" fill="white"/>
</svg>
